<?xml version="1.0" encoding="UTF-8" standalone="no"?>                                                                                                                                
  <svg
     width="25"                                                                                                                                                                         
     height="25"                                            
     viewBox="0 0 108 108"
     version="1.1"
     xmlns="http://www.w3.org/2000/svg">
    <rect
       width="108"
       height="108"
       fill="#FFFFFF" />
    <path
       fill="#010303"
       d="M 52.459484,66.343532 50.158146,64.207263 C 41.671962,56.659115 36.062449,51.53207 36.062449,45.265684 c 0,-5.127045 4.027342,-9.114745 9.205353,-9.114745 2.876673,0
  5.753346,1.28176 7.47935,3.418029 1.869837,-2.136269 4.602677,-3.418029 7.479349,-3.418029 5.178012,0 9.205353,3.9877 9.205353,9.114745 0,6.266386 -5.609512,11.393431
  -14.095696,18.941579 z" />
    <path
       style="fill:none;stroke:#000000;stroke-width:6"
       d="m 23.139709,28.519287 29.26469,-12.697094 28.87506,12.431609 -0.340188,24.215625 C 79.24653,74.113782 67.640024,83.400761 52.981051,88.882882 38.212011,81.87819
  25.726075,72.653884 23.512142,53.443232 Z" />
  </svg>

